<svg version="1.2" xmlns="http://www.w3.org/2000/svg" viewBox="0 0 177 177" width="177" height="177"><style>.a{fill:#e02b20}</style><path fill-rule="evenodd" class="a" d="m94.9 13.8q-1.7-0.2-2.9-1.1-1.2-0.9-1.8-2.3-0.6-1.5-0.4-3.3 0.1-1.9 0.9-3.2 0.9-1.3 2.2-2 1.4-0.7 3.1-0.5 1.8 0.1 3 1.2 1.3 1 1.7 2.6l-2.1 0.5-0.2-0.1q-0.2-0.9-0.9-1.4-0.7-0.6-1.7-0.6-1-0.1-1.8 0.3-0.9 0.4-1.4 1.3-0.4 0.9-0.5 2.1-0.2 1.2 0.2 2.2 0.3 0.9 1 1.5 0.8 0.5 1.8 0.6 1 0.1 1.7-0.3 0.8-0.4 1.2-1.3h0.2l2 0.8q-0.7 1.5-2.1 2.3-1.4 0.8-3.2 0.7zm11.5 1.9q-1.2-0.3-2.1-1.1-0.8-0.8-1.1-2-0.3-1.1 0-2.4 0.3-1.3 1.1-2.2 0.9-0.8 2-1.2 1.1-0.3 2.4 0 1.3 0.4 2.1 1.2 0.8 0.8 1.2 1.9 0.3 1.2-0.1 2.5-0.3 1.3-1.1 2.2-0.8 0.8-2 1.1-1.1 0.4-2.4 0zm0.5-1.9q0.7 0.1 1.2 0 0.6-0.2 1-0.7 0.4-0.5 0.6-1.3 0.2-0.7 0.1-1.4-0.1-0.6-0.6-1-0.4-0.4-1-0.6-0.7-0.2-1.2 0-0.6 0.2-1 0.7-0.4 0.5-0.6 1.2-0.2 0.8 0 1.4 0.1 0.7 0.5 1.1 0.4 0.4 1 0.6zm6 3.5l3.3-8 2 0.8-0.8 1.9-0.5-0.1q0.5-0.6 1.2-0.9 0.7-0.3 1.4-0.3 0.8 0 1.5 0.3 0.9 0.3 1.4 1 0.5 0.6 0.7 1.5 0.1 0.9-0.4 2l-2 5-2.1-0.9 1.7-4.3q0.3-0.7 0.3-1.2 0-0.5-0.2-0.9-0.3-0.4-0.8-0.6-0.3-0.1-0.9-0.1-0.5 0-1.1 0.4-0.5 0.4-0.9 1.4l-1.6 3.9zm12.8 6q-1.1-0.7-1.4-1.8-0.3-1.1 0.4-2.4l3.7-6.7 2 1.1-3.6 6.5q-0.3 0.6-0.2 1.1 0.2 0.5 0.7 0.8l0.8 0.4-0.1 0.2-0.8 1.6zm-0.7-7.9l1-1.8 5.3 2.9-1 1.8zm4.7 10.8q-0.7-0.5-1.1-1.2-0.4-0.7-0.3-1.4 0-0.7 0.4-1.4 0.8-1 1.9-1.1 1.1-0.2 2.5 0.7l3 1.7-1.1 1.5-2.6-1.6q-0.7-0.3-1.1-0.3-0.3 0-0.6 0.3-0.2 0.3 0 0.7 0.1 0.4 0.6 0.7 0.5 0.4 1 0.4 0.6 0 1.1-0.2 0.6-0.3 0.9-0.7l0.8-1.2q0.4-0.6 0.2-1.2-0.1-0.7-0.7-1.2-0.6-0.4-1.2-0.3-0.6 0-0.9 0.3l-0.2-0.1-1.3-1.4q0.9-0.8 2.1-0.9 1.3-0.1 2.6 0.8 1.5 1.1 1.8 2.6 0.3 1.5-0.8 3l-2.8 4-1.6-1.1 1.4-2.1 0.7 0.5q-0.6 0.5-1.4 0.7-0.8 0.2-1.7 0.1-0.8-0.1-1.6-0.6zm9.1 7.2q-1-1-1.4-2.1-0.4-1.1-0.1-2.3 0.3-1.1 1.2-2.1 0.9-1 2.1-1.4 1.1-0.4 2.2-0.1 1.2 0.3 2.2 1.2 0.8 0.7 1.1 1.5 0.4 0.8 0.4 1.7-0.1 0.9-0.5 1.9l-1.8-0.9-0.1-0.2q0.3-0.6 0.1-1.3-0.1-0.8-0.6-1.2-0.5-0.5-1.1-0.6-0.6-0.1-1.2 0.1-0.6 0.3-1.1 0.8-0.5 0.6-0.7 1.2-0.2 0.7 0 1.2 0.1 0.6 0.6 1.1 0.4 0.3 0.8 0.5 0.5 0.1 1 0.1 0.4-0.1 0.9-0.3l0.1 0.1 1.1 1.7q-1 0.5-1.9 0.6-0.8 0.2-1.7-0.2-0.8-0.3-1.6-1zm6.8 6.8q-0.8-1-0.7-2.2 0.1-1.1 1.2-2.1l5.8-5 1.5 1.7-5.6 4.9q-0.5 0.4-0.5 0.9-0.1 0.5 0.4 1l0.5 0.6-0.1 0.2-1.4 1.2zm2.1-7.6l1.5-1.4 4 4.6-1.5 1.3zm4.6 17.7q-0.7-1.3-0.8-2.5 0-1.1 0.6-2.2 0.6-1 1.8-1.7l6.6-3.8 1.1 2-6.5 3.8q-1 0.6-1.3 1.5-0.2 0.8 0.4 1.8 0.6 1 1.4 1.2 0.8 0.2 1.8-0.4l6.6-3.8 1.2 2-6.6 3.8q-1.2 0.7-2.4 0.7-1.2 0-2.2-0.6-1-0.6-1.7-1.8zm5.6 11.7q-0.5-1.2-0.4-2.3 0.1-1.1 0.6-2.1 0.5-0.9 1.4-1.4l1.3 1.7v0.2q-0.5 0.4-0.7 1-0.3 0.5-0.4 1.1 0 0.5 0.2 1.1 0.2 0.6 0.6 0.9 0.3 0.4 0.7 0.5 0.4 0.1 0.8 0 0.5-0.2 0.6-0.6 0.2-0.4 0.1-1.2l-0.2-2.1q-0.1-1.6 0.4-2.7 0.6-1.1 1.8-1.5 1-0.4 1.9-0.2 0.9 0.2 1.6 1 0.8 0.7 1.2 1.9 0.4 1.1 0.4 2.1-0.1 1-0.6 1.9-0.5 0.8-1.4 1.4l-1-1.7-0.1-0.2q0.7-0.4 0.9-1.2 0.2-0.7-0.2-1.6-0.3-0.8-0.8-1.1-0.5-0.3-1.1-0.1-0.4 0.2-0.7 0.6-0.1 0.5-0.1 1.2l0.3 2.1q0.1 1.7-0.4 2.7-0.5 1.1-1.7 1.5-1 0.4-2 0.2-1-0.3-1.8-1.1-0.7-0.8-1.2-2zm10.3 16.3l1.6-3.1 1.2 0.5-1 3.3zm2-3.5l3.4-0.7 0.3 1.8-3.5 0.2zm-3.4 0.2l3.4-0.2 0.2 1.3-3.4 0.8zm3 0.2l1-3.3 1.7 0.7-1.5 3.1zm0 0.6l1.1-0.8 2.3 2.6-1.5 1.1zm-2.3-2.5l1.4-1.2 1.9 2.9-1 0.8zm-5.3 22.4q0.2-1.7 1.1-2.9 0.9-1.2 2.4-1.8 1.4-0.6 3.3-0.4 1.8 0.2 3.2 1 1.3 0.9 1.9 2.2 0.7 1.4 0.5 3.1-0.1 1.7-1.2 3-1 1.2-2.7 1.6l-0.4-2 0.1-0.2q0.9-0.3 1.4-1 0.6-0.7 0.7-1.6 0.1-1.1-0.4-1.9-0.4-0.8-1.3-1.3-0.8-0.5-2-0.6-1.3-0.1-2.2 0.2-0.9 0.3-1.5 1-0.6 0.7-0.7 1.8-0.1 0.9 0.3 1.7 0.4 0.8 1.2 1.2l0.1 0.2-0.8 2q-1.6-0.7-2.3-2.1-0.8-1.5-0.7-3.2zm-2 11.5q0.3-1.3 1.1-2.1 0.9-0.8 2-1.1 1.2-0.3 2.5 0 1.3 0.3 2.1 1.2 0.9 0.8 1.2 1.9 0.3 1.1 0 2.4-0.4 1.3-1.2 2.1-0.8 0.9-2 1.2-1.1 0.3-2.4-0.1-1.3-0.3-2.2-1.1-0.8-0.9-1.2-2-0.3-1.1 0.1-2.4zm1.9 0.5q-0.1 0.7 0 1.2 0.2 0.6 0.7 1 0.5 0.4 1.3 0.6 0.7 0.2 1.3 0.1 0.7-0.1 1.1-0.5 0.4-0.4 0.6-1.1 0.2-0.6 0-1.2-0.2-0.6-0.7-1-0.5-0.4-1.2-0.6-0.8-0.2-1.4-0.1-0.6 0.2-1.1 0.6-0.4 0.4-0.6 1zm-3.5 6l7.9 3.3-0.8 2-1.9-0.8 0.1-0.6q0.6 0.6 0.9 1.3 0.3 0.7 0.3 1.4 0 0.8-0.3 1.5-0.4 0.8-1 1.4-0.7 0.5-1.6 0.6-0.9 0.1-2-0.3l-4.9-2.1 0.9-2.1 4.3 1.8q0.6 0.3 1.2 0.3 0.5 0 0.9-0.2 0.4-0.3 0.6-0.8 0.1-0.4 0.1-0.9 0-0.5-0.4-1.1-0.4-0.6-1.4-1l-3.8-1.6zm-6.2 12.8q0.7-1.2 1.8-1.5 1.1-0.2 2.4 0.5l6.7 3.7-1.1 2-6.5-3.6q-0.6-0.3-1.1-0.2-0.5 0.2-0.8 0.7l-0.4 0.7h-0.2l-1.6-0.9zm7.9-0.6l1.8 1-2.9 5.3-1.8-1zm-10.8 4.6q0.5-0.7 1.1-1.1 0.7-0.3 1.4-0.3 0.8 0 1.4 0.5 1 0.7 1.1 1.8 0.1 1.2-0.7 2.6l-1.7 2.9-1.5-1.1 1.6-2.6q0.3-0.6 0.3-1 0-0.4-0.3-0.6-0.3-0.2-0.7-0.1-0.4 0.2-0.7 0.6-0.4 0.5-0.4 1.1 0 0.5 0.2 1.1 0.2 0.5 0.7 0.8l1.1 0.8q0.6 0.4 1.3 0.3 0.7-0.1 1.1-0.8 0.5-0.6 0.4-1.2 0-0.5-0.3-0.8l0.1-0.2 1.4-1.3q0.8 0.8 0.9 2.1 0 1.3-0.9 2.6-1.1 1.5-2.5 1.7-1.5 0.3-3.1-0.8l-4-2.8 1.2-1.6 2 1.4-0.5 0.7q-0.4-0.6-0.7-1.4-0.2-0.8 0-1.7 0.1-0.8 0.7-1.6zm-7.3 9q0.9-1 2-1.3 1.1-0.4 2.3-0.1 1.1 0.3 2.1 1.2 1 1 1.4 2.1 0.3 1.1 0.1 2.3-0.3 1.1-1.2 2.1-0.8 0.8-1.6 1.1-0.8 0.4-1.7 0.4-0.8-0.1-1.8-0.6l0.9-1.7 0.1-0.1q0.7 0.3 1.4 0.1 0.7-0.1 1.2-0.6 0.5-0.5 0.6-1.1 0.1-0.6-0.1-1.2-0.3-0.6-0.8-1.1-0.6-0.5-1.2-0.7-0.6-0.2-1.2-0.1-0.6 0.2-1.1 0.7-0.3 0.4-0.5 0.8-0.1 0.4-0.1 0.9 0 0.5 0.3 0.9l-0.1 0.2-1.7 1q-0.6-0.9-0.7-1.8-0.1-0.9 0.3-1.7 0.3-0.9 1.1-1.7zm-6.9 6.8q1-0.8 2.1-0.7 1.2 0.1 2.1 1.2l5 5.8-1.7 1.5-4.8-5.6q-0.5-0.5-1-0.5-0.5-0.1-1 0.3l-0.6 0.6-0.2-0.1-1.2-1.4zm7.7 2.1l1.3 1.6-4.6 3.9-1.3-1.5zm-17.7 4.4q1.2-0.7 2.4-0.7 1.2 0 2.2 0.6 1 0.6 1.7 1.8l3.7 6.6-2 1.2-3.7-6.7q-0.6-1-1.4-1.2-0.9-0.2-1.8 0.3-1 0.6-1.3 1.4-0.2 0.9 0.4 1.9l3.7 6.6-2 1.1-3.7-6.6q-0.7-1.2-0.7-2.4 0-1.2 0.6-2.2 0.6-1 1.9-1.7zm-11.8 5.5q1.2-0.4 2.3-0.4 1.1 0.1 2.1 0.6 0.9 0.6 1.4 1.5l-1.8 1.2-0.1 0.1q-0.5-0.5-1-0.8-0.5-0.3-1.1-0.3-0.6-0.1-1.1 0.1-0.6 0.2-0.9 0.6-0.4 0.3-0.5 0.7-0.2 0.4 0 0.8 0.1 0.5 0.6 0.7 0.4 0.2 1.1 0.1l2.1-0.2q1.7-0.2 2.8 0.4 1.1 0.6 1.5 1.8 0.3 1 0.1 1.9-0.2 0.9-1 1.6-0.7 0.8-1.9 1.2-1.1 0.4-2.1 0.3-1 0-1.9-0.5-0.8-0.5-1.4-1.5l1.7-1h0.2q0.5 0.6 1.2 0.8 0.7 0.2 1.6-0.1 0.8-0.3 1.1-0.8 0.3-0.6 0.1-1.1-0.1-0.5-0.6-0.7-0.5-0.2-1.2-0.1l-2.1 0.2q-1.6 0.2-2.7-0.4-1-0.5-1.4-1.7-0.4-1-0.2-2 0.3-1 1.1-1.8 0.8-0.7 2-1.2zm-16.4 10.2l3.1 1.6-0.5 1.2-3.3-1.1zm3.4 2.1l0.8 3.4-1.9 0.2-0.2-3.4zm-0.1-3.5l0.1 3.5-1.3 0.2-0.7-3.4zm-0.2 2.9l3.3 1.1-0.7 1.7-3.1-1.6zm-0.6 0.1l0.8 1-2.6 2.3-1.2-1.5zm2.6-2.3l1.1 1.5-2.9 1.9-0.8-1.1zm-22.3-5.4q1.7 0.1 2.9 1 1.2 1 1.8 2.4 0.5 1.5 0.3 3.3-0.2 1.9-1 3.2-0.9 1.3-2.2 2-1.4 0.6-3.1 0.4-1.8-0.2-3-1.2-1.2-1.1-1.6-2.7l2.1-0.4 0.1 0.1q0.3 0.8 1 1.4 0.7 0.6 1.6 0.7 1.1 0.1 1.9-0.4 0.8-0.4 1.3-1.2 0.5-0.9 0.6-2.1 0.2-1.2-0.1-2.2-0.4-0.9-1.1-1.5-0.7-0.6-1.7-0.7-1-0.1-1.8 0.3-0.8 0.4-1.2 1.2h-0.2l-1.9-0.8q0.7-1.5 2.1-2.3 1.4-0.7 3.2-0.5zm-11.5-2.2q1.3 0.3 2.1 1.2 0.8 0.8 1.1 1.9 0.3 1.2 0 2.5-0.4 1.3-1.2 2.1-0.9 0.9-2 1.2-1.1 0.3-2.4-0.1-1.3-0.3-2.1-1.2-0.8-0.8-1.1-1.9-0.3-1.2 0.1-2.5 0.3-1.3 1.1-2.1 0.9-0.9 2-1.2 1.1-0.3 2.4 0.1zm-0.5 1.9q-0.7-0.1-1.2 0-0.6 0.2-1 0.7-0.4 0.5-0.6 1.2-0.2 0.8-0.1 1.4 0.1 0.6 0.5 1.1 0.4 0.4 1 0.6 0.7 0.2 1.2 0 0.6-0.2 1-0.7 0.4-0.5 0.6-1.2 0.2-0.8 0.1-1.4-0.1-0.6-0.5-1.1-0.4-0.4-1-0.6zm-6-3.6l-3.4 7.9-1.9-0.8 0.8-1.9 0.5 0.1q-0.5 0.6-1.2 0.9-0.7 0.3-1.5 0.3-0.7 0-1.4-0.3-0.9-0.4-1.4-1.1-0.5-0.6-0.6-1.5-0.1-0.9 0.3-2l2.2-4.9 2.1 0.9-1.9 4.2q-0.3 0.7-0.3 1.2 0 0.6 0.2 1 0.3 0.3 0.8 0.5 0.3 0.2 0.9 0.2 0.5 0 1.1-0.4 0.5-0.4 1-1.4l1.6-3.8zm-12.7-6.3q1.2 0.7 1.4 1.8 0.3 1.1-0.4 2.4l-3.9 6.7-1.9-1.2 3.7-6.4q0.3-0.6 0.1-1.1-0.1-0.5-0.7-0.8l-0.7-0.4 0.1-0.2 0.9-1.6zm0.5 7.9l-1 1.8-5.2-3 1-1.8zm-4.6-10.8q0.8 0.5 1.1 1.2 0.4 0.6 0.3 1.4 0 0.7-0.5 1.3-0.7 1-1.8 1.1-1.2 0.1-2.6-0.7l-2.9-1.8 1.1-1.4 2.6 1.5q0.7 0.4 1.1 0.4 0.3 0 0.6-0.3 0.2-0.3 0-0.7-0.1-0.4-0.6-0.7-0.5-0.4-1-0.4-0.6-0.1-1.1 0.2-0.5 0.2-0.9 0.6l-0.8 1.2q-0.4 0.6-0.3 1.2 0.2 0.7 0.8 1.2 0.6 0.4 1.2 0.4 0.5-0.1 0.9-0.4l0.1 0.1 1.3 1.5q-0.9 0.8-2.1 0.8-1.3 0.1-2.6-0.8-1.5-1.1-1.7-2.6-0.3-1.5 0.8-3.1l2.9-3.9 1.6 1.2-1.5 2-0.6-0.5q0.6-0.5 1.4-0.7 0.8-0.2 1.6 0 0.9 0.1 1.6 0.7zm-8.9-7.4q1 0.9 1.3 2.1 0.4 1.1 0.1 2.2-0.3 1.2-1.3 2.2-0.9 0.9-2 1.3-1.2 0.3-2.3 0.1-1.1-0.3-2.1-1.3-0.8-0.7-1.2-1.5-0.3-0.8-0.3-1.7 0.1-0.9 0.6-1.8l1.7 0.9 0.1 0.1q-0.3 0.7-0.1 1.4 0.1 0.7 0.6 1.2 0.5 0.4 1.1 0.6 0.5 0.1 1.1-0.1 0.6-0.2 1.2-0.8 0.5-0.6 0.7-1.2 0.2-0.6 0.1-1.2-0.2-0.6-0.7-1.1-0.3-0.3-0.8-0.5-0.4-0.1-0.9-0.1-0.5 0-0.9 0.3l-0.2-0.2-1-1.6q1-0.6 1.9-0.7 0.8-0.1 1.7 0.3 0.8 0.3 1.6 1.1zm-6.7-7q0.8 1.1 0.7 2.2-0.1 1.2-1.2 2.1l-5.9 4.9-1.5-1.7 5.7-4.8q0.5-0.4 0.5-0.9 0.1-0.5-0.4-1l-0.5-0.6 0.1-0.2 1.4-1.2zm-2.2 7.6l-1.6 1.3-3.8-4.6 1.5-1.3zm-4.3-17.8q0.7 1.3 0.7 2.5 0 1.2-0.6 2.2-0.6 1-1.8 1.6l-6.7 3.7-1.1-2 6.7-3.7q1-0.5 1.2-1.4 0.3-0.8-0.3-1.8-0.6-1-1.4-1.2-0.8-0.3-1.8 0.3l-6.7 3.7-1.1-2 6.6-3.7q1.3-0.7 2.5-0.7 1.1 0 2.1 0.7 1 0.6 1.7 1.8zm-5.4-11.8q0.5 1.2 0.4 2.4-0.1 1-0.6 2-0.6 0.9-1.5 1.4l-1.2-1.8-0.1-0.2q0.5-0.4 0.8-0.9 0.3-0.5 0.4-1.1 0-0.6-0.2-1.1-0.2-0.6-0.5-1-0.4-0.3-0.7-0.5-0.5-0.1-0.9 0-0.4 0.2-0.6 0.6-0.2 0.4-0.1 1.2l0.1 2.1q0.2 1.6-0.4 2.7-0.6 1.1-1.8 1.5-1 0.4-1.9 0.1-0.9-0.2-1.6-0.9-0.8-0.8-1.2-2-0.4-1.1-0.3-2.1 0.1-1 0.6-1.9 0.5-0.8 1.4-1.4l1.1 1.7v0.2q-0.7 0.5-0.9 1.2-0.2 0.7 0.1 1.6 0.3 0.8 0.8 1.2 0.6 0.3 1.1 0.1 0.5-0.2 0.7-0.6 0.2-0.5 0.1-1.3l-0.2-2.1q-0.1-1.6 0.5-2.6 0.5-1.1 1.7-1.5 1-0.3 2-0.1 1 0.3 1.7 1.1 0.8 0.8 1.2 2zm-10-16.5l-1.6 3.1-1.2-0.5 1.1-3.3zm-2.1 3.4l-3.4 0.7-0.3-1.8 3.5-0.2zm3.5-0.1l-3.5 0.1-0.2-1.3 3.4-0.6zm-2.9-0.3l-1.1 3.3-1.7-0.8 1.6-3zm-0.1-0.7l-1 0.8-2.3-2.6 1.5-1.1zm2.3 2.6l-1.5 1.1-1.8-2.9 1-0.8zm5.7-22.3q-0.2 1.7-1.1 2.9-0.9 1.2-2.4 1.7-1.5 0.6-3.3 0.4-1.9-0.3-3.2-1.1-1.3-0.9-1.9-2.2-0.7-1.4-0.5-3.1 0.2-1.8 1.3-3 1.1-1.2 2.7-1.6l0.4 2.1-0.1 0.2q-0.9 0.2-1.4 0.9-0.6 0.7-0.7 1.6-0.1 1.1 0.3 1.9 0.4 0.8 1.3 1.3 0.8 0.5 2 0.7 1.2 0.1 2.2-0.2 0.9-0.3 1.5-1 0.6-0.7 0.7-1.7 0.1-1-0.2-1.8-0.4-0.8-1.2-1.2l-0.1-0.2 0.9-2q1.5 0.8 2.2 2.2 0.8 1.4 0.6 3.2zm2.3-11.5q-0.4 1.3-1.2 2.1-0.9 0.8-2 1.1-1.2 0.3-2.5-0.1-1.2-0.3-2.1-1.2-0.8-0.8-1.1-1.9-0.3-1.2 0-2.5 0.4-1.2 1.3-2 0.8-0.9 1.9-1.1 1.2-0.3 2.5 0 1.3 0.4 2.1 1.2 0.9 0.9 1.2 2 0.2 1.2-0.1 2.4zm-2-0.5q0.2-0.7 0.1-1.2-0.2-0.6-0.7-1-0.5-0.4-1.2-0.6-0.8-0.3-1.4-0.2-0.6 0.1-1.1 0.5-0.4 0.4-0.6 1.1-0.2 0.6 0 1.2 0.1 0.6 0.6 1 0.5 0.4 1.3 0.6 0.7 0.2 1.3 0.1 0.7-0.1 1.1-0.5 0.5-0.4 0.6-1zm3.7-5.9l-7.9-3.5 0.9-2 1.9 0.9-0.1 0.5q-0.6-0.6-0.9-1.3-0.3-0.6-0.3-1.4 0-0.7 0.3-1.5 0.4-0.8 1.1-1.3 0.7-0.6 1.5-0.6 0.9-0.1 2 0.3l4.9 2.2-0.9 2.1-4.2-1.9q-0.7-0.3-1.2-0.3-0.6 0-1 0.2-0.3 0.3-0.6 0.7-0.1 0.4-0.1 1 0 0.5 0.4 1.1 0.3 0.5 1.3 1l3.9 1.7zm6.3-12.7q-0.6 1.1-1.8 1.4-1.1 0.3-2.3-0.5l-6.7-3.8 1.2-2 6.4 3.7q0.5 0.3 1 0.2 0.5-0.1 0.9-0.7l0.4-0.7 0.2 0.1 1.6 0.9zm-8 0.4l-1.7-1 3-5.2 1.8 1zm10.9-4.4q-0.5 0.7-1.2 1.1-0.7 0.3-1.4 0.3-0.7-0.1-1.4-0.5-1-0.8-1.1-1.9 0-1.1 0.8-2.6l1.8-2.8 1.5 1.1-1.7 2.6q-0.3 0.6-0.3 1 0 0.4 0.3 0.6 0.3 0.2 0.7 0.1 0.4-0.2 0.7-0.6 0.4-0.5 0.4-1.1 0-0.5-0.2-1.1-0.2-0.5-0.6-0.8l-1.2-0.8q-0.5-0.5-1.2-0.4-0.7 0.2-1.2 0.8-0.4 0.6-0.4 1.2 0 0.5 0.3 0.9l-0.1 0.1-1.4 1.3q-0.8-0.9-0.9-2.1 0-1.3 0.9-2.6 1.2-1.5 2.6-1.7 1.5-0.2 3.1 0.9l3.9 2.9-1.2 1.6-2-1.5 0.5-0.7q0.5 0.6 0.7 1.5 0.2 0.8 0 1.6-0.1 0.8-0.7 1.6zm7.5-8.9q-1 1-2.1 1.4-1.2 0.3-2.3 0-1.1-0.3-2.1-1.3-1-0.9-1.3-2.1-0.4-1.1-0.1-2.2 0.3-1.2 1.3-2.2 0.7-0.7 1.5-1.1 0.8-0.3 1.7-0.3 0.9 0.1 1.9 0.6l-1 1.7-0.1 0.2q-0.7-0.4-1.4-0.2-0.7 0.1-1.2 0.6-0.5 0.5-0.6 1-0.1 0.6 0.1 1.2 0.2 0.6 0.8 1.2 0.5 0.5 1.1 0.7 0.7 0.2 1.2 0.1 0.6-0.2 1.1-0.7 0.4-0.3 0.5-0.8 0.2-0.4 0.2-0.9-0.1-0.5-0.3-0.9l0.1-0.1 1.7-1q0.5 0.9 0.6 1.8 0.1 0.9-0.2 1.7-0.4 0.9-1.1 1.6zm7-6.6q-1.1 0.8-2.2 0.7-1.2-0.2-2.1-1.3l-4.9-5.9 1.8-1.5 4.7 5.8q0.4 0.4 0.9 0.5 0.6 0 1-0.4l0.7-0.5 0.2 0.1 1.1 1.4zm-7.6-2.3l-1.3-1.5 4.7-3.9 1.3 1.6zm17.8-4.1q-1.3 0.6-2.5 0.6-1.2 0-2.2-0.6-0.9-0.6-1.6-1.9l-3.6-6.6 2-1.1 3.6 6.7q0.6 1 1.4 1.2 0.8 0.3 1.8-0.3 1-0.5 1.3-1.3 0.2-0.9-0.3-1.9l-3.7-6.7 2.1-1.1 3.6 6.7q0.6 1.2 0.6 2.4 0 1.2-0.6 2.2-0.7 1-1.9 1.7zm11.8-5.3q-1.2 0.4-2.3 0.3-1.1-0.1-2-0.6-0.9-0.6-1.4-1.5l1.8-1.2h0.1q0.5 0.5 1 0.8 0.5 0.2 1.1 0.3 0.5 0.1 1.1-0.1 0.6-0.2 0.9-0.6 0.4-0.3 0.6-0.7 0.1-0.4 0-0.8-0.2-0.4-0.6-0.6-0.4-0.2-1.2-0.2l-2.1 0.2q-1.6 0.1-2.7-0.5-1.1-0.6-1.5-1.8-0.3-1-0.1-1.9 0.3-0.9 1-1.6 0.8-0.8 1.9-1.2 1.2-0.3 2.2-0.3 1 0.1 1.8 0.6 0.9 0.6 1.4 1.5l-1.7 1h-0.2q-0.4-0.6-1.2-0.8-0.7-0.2-1.6 0.1-0.8 0.2-1.1 0.8-0.3 0.5-0.2 1 0.2 0.5 0.7 0.7 0.4 0.2 1.2 0.2l2.1-0.2q1.6-0.1 2.6 0.4 1.1 0.6 1.5 1.8 0.3 1 0.1 2-0.3 1-1.1 1.7-0.8 0.8-2.1 1.2zm16.5-9.9l-3.1-1.6 0.5-1.2 3.3 1.1zm-3.5-2.1l-0.7-3.4 1.9-0.2 0.1 3.4zm0.2 3.5l-0.2-3.5 1.3-0.1 0.7 3.3zm0.3-2.9l-3.3-1.1 0.7-1.7 3.1 1.6zm0.6-0.1l-0.8-1 2.6-2.3 1.1 1.5zm-2.5 2.3l-1.2-1.5 3-1.9 0.7 1.1z"/></svg>